HIERARCHY
ROOT Hips
{
  OFFSET 0 0.240689 0
  CHANNELS 6 Xposition Yposition Zposition Zrotation Xrotation Yrotation
  JOINT Bip01_Spine0
  {
    OFFSET 0 -24.7459 49.7988
    CHANNELS 6 Xposition Yposition Zposition Zrotation Xrotation Yrotation
    JOINT Bip01_Pelvis
    {
      OFFSET 0 0 0
      CHANNELS 6 Xposition Yposition Zposition Zrotation Xrotation Yrotation
      JOINT Bip01_Spine0_Tail
      {
        OFFSET -6.47486 -3.86022 0
        CHANNELS 6 Xposition Yposition Zposition Zrotation Xrotation Yrotation
        JOINT Bip01_Spine0_Tail1
        {
          OFFSET 10.3837 -0.00825882 0
          CHANNELS 6 Xposition Yposition Zposition Zrotation Xrotation Yrotation
          JOINT Bip01_Spine0_Tail2
          {
            OFFSET 10.3837 -0.00826263 0
            CHANNELS 6 Xposition Yposition Zposition Zrotation Xrotation Yrotation
            JOINT Bip01_Spine0_Tail3
            {
              OFFSET 10.3837 -0.00825882 0
              CHANNELS 6 Xposition Yposition Zposition Zrotation Xrotation Yrotation
              JOINT Bip01_Spine0_Tail4
              {
                OFFSET 10.3837 -0.00826263 0
                CHANNELS 6 Xposition Yposition Zposition Zrotation Xrotation Yrotation
                End Site
                {
                  OFFSET 0 0 0
                }
              }
            }
          }
        }
      }
      JOINT Bip01_R_Thigh
      {
        OFFSET 0 -1.52588e-005 -8.75617
        CHANNELS 6 Xposition Yposition Zposition Zrotation Xrotation Yrotation
        JOINT Bip01_R_Calf
        {
          OFFSET 19.7638 0 0
          CHANNELS 6 Xposition Yposition Zposition Zrotation Xrotation Yrotation
          JOINT Bip01_R_Foot
          {
            OFFSET 18.6534 0 0
            CHANNELS 6 Xposition Yposition Zposition Zrotation Xrotation Yrotation
            JOINT Bip01_R_Toe0
            {
              OFFSET 5.09145 13.9567 0
              CHANNELS 6 Xposition Yposition Zposition Zrotation Xrotation Yrotation
              JOINT Bip01_R_Toe01
              {
                OFFSET 4.28803 0 0
                CHANNELS 6 Xposition Yposition Zposition Zrotation Xrotation Yrotation
                JOINT Bip01_R_Toe02
                {
                  OFFSET 3.85801 0 0
                  CHANNELS 6 Xposition Yposition Zposition Zrotation Xrotation Yrotation
                  End Site
                  {
                    OFFSET 0 0 0
                  }
                }
              }
            }
          }
        }
      }
      JOINT Bip01_L_Thigh
      {
        OFFSET 0 1.52588e-005 8.75617
        CHANNELS 6 Xposition Yposition Zposition Zrotation Xrotation Yrotation
        JOINT Bip01_L_Calf
        {
          OFFSET 19.7638 0 0
          CHANNELS 6 Xposition Yposition Zposition Zrotation Xrotation Yrotation
          JOINT Bip01_L_Foot
          {
            OFFSET 18.6534 0 0
            CHANNELS 6 Xposition Yposition Zposition Zrotation Xrotation Yrotation
            JOINT Bip01_L_Toe0
            {
              OFFSET 5.09144 13.9567 0
              CHANNELS 6 Xposition Yposition Zposition Zrotation Xrotation Yrotation
              JOINT Bip01_L_Toe01
              {
                OFFSET 4.28802 0 0
                CHANNELS 6 Xposition Yposition Zposition Zrotation Xrotation Yrotation
                JOINT Bip01_L_Toe02
                {
                  OFFSET 3.85801 0 0
                  CHANNELS 6 Xposition Yposition Zposition Zrotation Xrotation Yrotation
                  End Site
                  {
                    OFFSET 0 0 0
                  }
                }
              }
            }
          }
        }
      }
      JOINT Bip01_Spine
      {
        OFFSET 9.14835 -0.00640869 -1.1e-005
        CHANNELS 6 Xposition Yposition Zposition Zrotation Xrotation Yrotation
        JOINT Bip01_Spine1
        {
          OFFSET 8.04366 -0.00638199 0
          CHANNELS 6 Xposition Yposition Zposition Zrotation Xrotation Yrotation
          JOINT Bip01_Spine2
          {
            OFFSET 8.04367 -0.00639343 0
            CHANNELS 6 Xposition Yposition Zposition Zrotation Xrotation Yrotation
            JOINT Bip01_Spine3
            {
              OFFSET 8.04304 -0.00831222 0
              CHANNELS 6 Xposition Yposition Zposition Zrotation Xrotation Yrotation
              JOINT Bip01_Neck
              {
                OFFSET 10.6685 1.06813 0
                CHANNELS 6 Xposition Yposition Zposition Zrotation Xrotation Yrotation
                JOINT Bip01_R_Clavicle
                {
                  OFFSET -3.21661 -4.89635 -9.04802
                  CHANNELS 6 Xposition Yposition Zposition Zrotation Xrotation Yrotation
                  JOINT Bip01_R_UpperArm
                  {
                    OFFSET 19.0492 0 0
                    CHANNELS 6 Xposition Yposition Zposition Zrotation Xrotation Yrotation
                    JOINT Bip01_R_Forearm
                    {
                      OFFSET 10.3706 0 0
                      CHANNELS 6 Xposition Yposition Zposition Zrotation Xrotation Yrotation
                      JOINT Bip01_R_Hand
                      {
                        OFFSET 22.8632 0 0
                        CHANNELS 6 Xposition Yposition Zposition Zrotation Xrotation Yrotation
                        JOINT Bip01_R_Finger0
                        {
                          OFFSET 6.48259 0.103651 0.504496
                          CHANNELS 6 Xposition Yposition Zposition Zrotation Xrotation Yrotation
                          JOINT Bip01_R_Finger01
                          {
                            OFFSET 3.66847 0 0
                            CHANNELS 6 Xposition Yposition Zposition Zrotation Xrotation Yrotation
                            End Site
                            {
                              OFFSET 0 0 0
                            }
                          }
                        }
                      }
                    }
                  }
                }
                JOINT Bip01_L_Clavicle
                {
                  OFFSET -3.21661 -4.89641 9.04797
                  CHANNELS 6 Xposition Yposition Zposition Zrotation Xrotation Yrotation
                  JOINT Bip01_L_UpperArm
                  {
                    OFFSET 19.0492 0 0
                    CHANNELS 6 Xposition Yposition Zposition Zrotation Xrotation Yrotation
                    JOINT Bip01_L_Forearm
                    {
                      OFFSET 10.3706 0 0
                      CHANNELS 6 Xposition Yposition Zposition Zrotation Xrotation Yrotation
                      JOINT Bip01_L_Hand
                      {
                        OFFSET 22.8631 0 0
                        CHANNELS 6 Xposition Yposition Zposition Zrotation Xrotation Yrotation
                        JOINT Bip01_L_Finger0
                        {
                          OFFSET 6.48257 0.103655 -0.504492
                          CHANNELS 6 Xposition Yposition Zposition Zrotation Xrotation Yrotation
                          JOINT Bip01_L_Finger01
                          {
                            OFFSET 3.66844 0 0
                            CHANNELS 6 Xposition Yposition Zposition Zrotation Xrotation Yrotation
                            End Site
                            {
                              OFFSET 0 0 0
                            }
                          }
                        }
                      }
                    }
                  }
                }
                JOINT Bip01_Neck1
                {
                  OFFSET 7.52459 -0.00656509 0
                  CHANNELS 6 Xposition Yposition Zposition Zrotation Xrotation Yrotation
                  JOINT Bip01_Neck2
                  {
                    OFFSET 8.4783 -0.00588226 0
                    CHANNELS 6 Xposition Yposition Zposition Zrotation Xrotation Yrotation
                    JOINT Bip01_Head
                    {
                      OFFSET 8.41606 0 0
                      CHANNELS 6 Xposition Yposition Zposition Zrotation Xrotation Yrotation
                      JOINT EyesBlue
                      {
                        OFFSET 0 0 0
                        CHANNELS 6 Xposition Yposition Zposition Zrotation Xrotation Yrotation
                        JOINT EyesBlue_2
                        {
                          OFFSET 0 -0.500007 0
                          CHANNELS 6 Xposition Yposition Zposition Zrotation Xrotation Yrotation
                          End Site
                          {
                            OFFSET 0 0 0
                          }
                        }
                      }
                      JOINT Bip01_Head2_Eyeleds
                      {
                        OFFSET 6.52751 7.61746 2.2e-005
                        CHANNELS 6 Xposition Yposition Zposition Zrotation Xrotation Yrotation
                        End Site
                        {
                          OFFSET 0 0 0
                        }
                      }
                      JOINT Bip01_Head_Muzzle
                      {
                        OFFSET 2.88628 13.9448 3.88994
                        CHANNELS 6 Xposition Yposition Zposition Zrotation Xrotation Yrotation
                        End Site
                        {
                          OFFSET 0 0 0
                        }
                      }
                      JOINT Bip01_Head1_Jaw
                      {
                        OFFSET 0.271065 1.32405 0
                        CHANNELS 6 Xposition Yposition Zposition Zrotation Xrotation Yrotation
                        JOINT _Bip01_Head11_TungeControler
                        {
                          OFFSET 4.61616 5.82872 0
                          CHANNELS 6 Xposition Yposition Zposition Zrotation Xrotation Yrotation
                          JOINT _Bip01_Ponytail3_tunge
                          {
                            OFFSET 5.17785 2.98805 0
                            CHANNELS 6 Xposition Yposition Zposition Zrotation Xrotation Yrotation
                            JOINT Bip01_Ponytail31
                            {
                              OFFSET 5.57569 0 0
                              CHANNELS 6 Xposition Yposition Zposition Zrotation Xrotation Yrotation
                              JOINT Bip01_Ponytail32
                              {
                                OFFSET 2.93165 0 0
                                CHANNELS 6 Xposition Yposition Zposition Zrotation Xrotation Yrotation
                                JOINT Bip01_Ponytail3Nub
                                {
                                  OFFSET 3.30155 0 0
                                  CHANNELS 6 Xposition Yposition Zposition Zrotation Xrotation Yrotation
                                  End Site
                                  {
                                    OFFSET 0 0 0
                                  }
                                }
                              }
                            }
                          }
                        }
                        JOINT Bip01_Head_JawNub
                        {
                          OFFSET 15.5776 -0.000389099 0
                          CHANNELS 6 Xposition Yposition Zposition Zrotation Xrotation Yrotation
                          End Site
                          {
                            OFFSET 0 0 0
                          }
                        }
                      }
                      JOINT Bip01_Ponytail2
                      {
                        OFFSET 9.40334 1.03973 -6.51764
                        CHANNELS 6 Xposition Yposition Zposition Zrotation Xrotation Yrotation
                        JOINT Bip01_Ponytail21
                        {
                          OFFSET 2.77018 -0.00640106 1.33514e-005
                          CHANNELS 6 Xposition Yposition Zposition Zrotation Xrotation Yrotation
                          End Site
                          {
                            OFFSET 0 0 0
                          }
                        }
                      }
                      JOINT Bip01_Ponytail1
                      {
                        OFFSET 9.40368 1.03969 6.51768
                        CHANNELS 6 Xposition Yposition Zposition Zrotation Xrotation Yrotation
                        JOINT Bip01_Ponytail11
                        {
                          OFFSET 2.77018 -0.00640487 0
                          CHANNELS 6 Xposition Yposition Zposition Zrotation Xrotation Yrotation
                          End Site
                          {
                            OFFSET 0 0 0
                          }
                        }
                      }
                    }
                  }
                }
              }
            }
          }
        }
      }
    }
  }
}
MOTION
Frames:	4
Frame Time:	0.0333333
0 1e-006 -1e-006 -0 -90 -0 0 -28.702 45.972 90 5.9232e-005 80.4619 0 0 0 -89.9999 6.67477e-006 -78.9999 -6.36039 -3.85828 -1.23554 174.09 -6.70124 -0.273501 10.384 -0.008186 0.000988 4.63106 -6.88445 -4.1388 10.383 -0.008205 -0.000920001 -2.5479 6.40962 7.17058 10.3841 -0.008098 0.001554 4.87765 -10.831 9.98286 10.3864 -0.007667 0.000627003 21.4976 -4.34332 7.89016 9e-006 -1.5e-005 -8.75617 -101.563 2.78777 178.294 19.7638 -3.55271e-015 8.88178e-015 -91.828 -7.4109e-008 1.00128e-005 18.6534 0 -1.77636e-015 -48.5851 1.2972 -3.69994 5.09143 13.9567 -1.20712e-006 70.3988 -2.79352 -4.14847 4.288 3e-006 -1.19904e-013 20 -2.26024e-005 -9.568e-006 3.85799 -2.13163e-014 -1.77636e-015 -45 -2.95019e-006 5.88174e-006 -1.5e-005 1.1e-005 8.75617 -157.603 5.57064 -161.041 19.7638 -7.10543e-015 -1.77636e-015 -133.828 -1.5594e-005 2.89777e-007 18.6534 0 5.32907e-015 71.4231 3.57647 -1.60683 5.09143 13.9567 1.27726e-007 40.9829 0.391792 4.98468 4.288 1e-006 3.19744e-014 -26 -2.19959e-008 8.68625e-007 3.85799 2.4869e-014 -3e-006 -45 -1.1896e-005 -1.23743e-005 8.98027 -0.006401 1.7456 0.0447594 -0.00894069 -11.0001 8.04366 -0.006393 3e-006 -1.59027e-015 1.00179e-005 -2.51775e-014 8.04451 -0.006015 -0.002032 7.97591 18.5 -0.0152861 8.04304 -0.008319 4.02244e-010 -4.29873 1.73311e-005 2.65277e-005 10.6685 1.06812 7.08776e-006 -13.2811 -2.26771e-005 3.34465e-005 -2.46762 -5.3129 -9.04801 -158.383 -67.4171 125.5 19.0492 1e-006 0 86.3721 6.50324 -92.7673 10.3706 -1e-006 -3.55271e-015 -40.4034 -1.2872e-007 2.72634e-007 22.8631 -7.99361e-015 -7.10543e-015 23.1567 3.94962 -18.684 6.48256 0.103653 0.504496 46.6913 -12.6317 9.05516 3.66844 -1e-006 7.81597e-014 40.107 -1.57987e-007 1.08116e-005 -2.46762 -5.31294 9.04798 -158.383 74.9167 -142 19.0492 1.06581e-013 3e-006 95.4149 -57.3134 120.293 10.3706 3e-006 3e-006 -102.51 1.71689e-007 -1.88586e-005 22.8631 -3e-006 -2.13163e-013 29.656 -27.3303 14.833 6.48257 0.103649 -0.504494 15.8775 15.4367 -1.40644 3.66843 3.48166e-013 1e-006 40.1071 1.40564e-005 2.50368e-006 7.52378 -0.00632 -2.03055e-010 -20.5 -8.22287e-006 5.46447e-005 8.47604 -0.006574 2.69999e-005 8.50006 0.00101876 0.000877892 8.41604 -1.42109e-014 -1.77636e-015 -48.4219 0.451906 -18.4946 3.97904e-013 5e-006 -3e-006 -23.1098 1.37701e-015 90 2.2574e-007 -0.500004 9.61046e-007 -102.273 90 -167.727 6.52749 7.61746 2.18107e-005 -99.049 -1.52588e-005 -180 2.88629 13.9448 3.88994 -23.1098 1.37701e-015 90 0.271065 1.32405 3.96709e-006 -71.7785 0.000137329 -180 4.61616 5.82873 -6.88287e-006 -120.289 -2.2553e-006 9.94211e-007 5.17783 2.98806 3.08733e-006 133.74 -1.24317e-006 -1.20986e-006 5.57566 7e-006 -3e-006 1.83152 4.75542e-007 -2.72883e-009 2.93163 -5.68434e-014 -3e-006 -17.65 -1.57833e-006 -1.18311e-007 3.30154 -7e-006 3e-006 -26.1943 1.62589e-005 -1.05712e-005 15.5776 -0.000396 -7.00001e-006 1.10348e-032 7.95139e-016 -7.95139e-016 9.40333 1.03973 -6.51764 -19.0867 17.2453 20.3009 2.77017 -0.006408 1.50001e-005 2.43503 9.26604e-006 -1.76799e-005 9.40366 1.03968 6.51768 -19.0868 -17.2453 -20.3008 2.77017 -0.006401 -4.99984e-006 2.43503 1.00042e-005 -2.09778e-007 
0 1e-006 -11.9166 -0 -90 -0 0 -28.702 45.6361 90 5.92536e-005 80.3286 0 0 0 -89.9999 2.45109e-005 -83.3911 -6.36038 -3.85828 -0.742197 173.686 -4.8247 -2.94555 10.384 -0.008186 0.000988 4.66994 -5.16678 -4.19767 10.383 -0.008205 -0.000920001 -2.09969 4.83645 4.2608 10.3841 -0.008098 0.001554 4.01341 -8.20225 6.32292 10.3864 -0.007667 0.000627002 21.2079 -3.27955 4.81439 9e-006 -1.5e-005 -8.75617 -102.453 -1.96521 177.129 19.7638 -1.77636e-015 3.55271e-015 -97.075 2.09807e-007 9.94163e-006 18.6534 7.10543e-015 -3.55271e-015 -48.845 1.57416 -3.56433 5.09143 13.9567 -1.15484e-006 70.1866 -2.77807 -4.15876 4.288 3e-006 -1.33227e-013 19.6686 -2.26163e-005 -9.62109e-006 3.85799 0 2.66454e-015 -45 -2.35254e-006 5.75827e-006 -1.5e-005 1.1e-005 8.75617 -146.952 4.64387 -165.827 19.7638 7.10543e-015 -5.32907e-015 -118.792 -1.44672e-005 3.95455e-006 18.6534 1.42109e-014 0 47.7784 3.48854 -0.369167 5.09143 13.9567 8.65569e-008 64.343 1.69845 4.11241 4.288 1e-006 2.13163e-014 -9.55585 -1.53337e-006 2.09776e-007 3.85799 5.68434e-014 -3e-006 -40.6366 -1.19194e-005 -1.0761e-005 8.98027 -0.006401 1.39613 0.0453668 -0.00726011 -8.79787 8.04366 -0.006393 3e-006 -5.08889e-014 1.00179e-005 8.74653e-015 8.04451 -0.006015 -0.002032 7.97414 14.7963 -0.0120001 8.04304 -0.008319 4.57775e-009 -4.29873 -7.31424e-006 2.4372e-005 10.6685 1.06812 7.01259e-006 -13.2811 -2.70964e-005 3.25202e-005 -2.46762 -5.3129 -9.04801 -158.92 -68.6255 130.8 19.0492 1e-006 -1.42109e-014 85.0257 -5.21041 -88.408 10.3706 -1e-006 -3.55271e-014 -71.6484 -1.33582e-006 1.69823e-006 22.8631 -7.10543e-015 -3.55271e-015 34.0856 3.54276 -19.5159 6.48256 0.103653 0.504496 42.6404 -13.2196 8.15883 3.66844 -1e-006 -3.19744e-014 40.107 1.29045e-005 6.60652e-006 -2.46762 -5.31294 9.04798 -158.43 74.1726 -140.935 19.0492 1.27898e-013 3e-006 107.704 -68.6997 128.194 10.3706 3e-006 3e-006 -78.5302 -7.6071e-006 -1.91228e-005 22.8631 -3e-006 -1.95399e-013 -0.723964 -19.1399 14.8231 6.48257 0.103649 -0.504494 11.2297 15.4982 -0.166278 3.66843 -1.63425e-013 1e-006 40.1071 4.36737e-005 -1.42251e-005 7.52378 -0.00632 -2.57671e-010 -21 -8.49768e-006 5.47566e-005 8.47604 -0.006574 2.69999e-005 8.50006 0.00101865 0.000877854 8.41604 7.10543e-015 0 -48.817 0.189081 -17.3179 3.97904e-013 5e-006 -3e-006 -23.1098 1.37701e-015 90 2.26669e-007 -0.500004 9.62259e-007 -101.273 90 -168.727 6.52749 7.61746 2.18374e-005 -99.049 -7.01671e-015 -180 2.88629 13.9448 3.88994 -23.1098 1.37701e-015 90 0.271065 1.32405 3.97174e-006 -71.7785 0.000137329 -180 4.61616 5.82873 -6.99171e-006 -120.289 -1.00912e-006 7.03874e-008 5.17783 2.98806 3.05048e-006 133.74 1.89531e-006 -6.99371e-007 5.57566 7e-006 -3e-006 1.83152 9.62234e-007 8.19656e-008 2.93163 -2.13163e-013 -3e-006 -17.65 -3.61895e-006 -1.06894e-006 3.30154 -7e-006 3e-006 -26.1943 1.57391e-005 -1.09893e-005 15.5776 -0.000396 -7e-006 6.36111e-015 1.59028e-015 -0 9.40333 1.03973 -6.51764 -19.0867 17.2453 20.3009 2.77017 -0.006408 1.50001e-005 2.43503 9.27071e-006 -1.76822e-005 9.40366 1.03968 6.51768 -19.0868 -17.2453 -20.3008 2.77017 -0.006401 -4.99985e-006 2.43503 9.99992e-006 -2.11616e-007 
0 1e-006 -23.8336 -0 -90 -0 0 -28.702 45.3001 90 5.4319e-006 80.1952 0 0 0 -89.9999 7.83312e-006 -87.7824 -6.36037 -3.85828 -0.248848 173.456 -2.94663 -5.60605 10.384 -0.008186 0.000988 4.71245 -3.44938 -4.25998 10.383 -0.008205 -0.000920001 -1.81658 3.23406 1.37067 10.3841 -0.008098 0.001554 3.49382 -5.50382 2.72524 10.3864 -0.007667 0.000627 21.0342 -2.19656 1.74685 9e-006 -1.5e-005 -8.75617 -103.539 -6.70757 175.936 19.7638 1.77636e-015 7.10543e-015 -102.322 1.63376e-006 9.78714e-006 18.6534 1.77636e-014 1.77636e-015 -49.1062 1.85118 -3.42877 5.09143 13.9567 -1.10972e-006 69.9743 -2.76264 -4.16902 4.288 3e-006 -1.51879e-013 19.3371 -2.26572e-005 -9.65596e-006 3.85799 0 1.77636e-015 -45 -5.47684e-006 5.61193e-006 -1.5e-005 1.1e-005 8.75617 -136.471 3.64056 -170.597 19.7638 -2.13163e-014 1.77636e-015 -103.756 -1.24483e-005 7.34851e-006 18.6534 0 -3.55271e-015 24.1377 3.39897 0.868251 5.09143 13.9567 7.26563e-008 87.7437 3.32247 3.10481 4.288 1e-006 -2.84217e-014 6.88815 1.83911e-006 1.03608e-005 3.85799 -2.22045e-013 -3e-006 -36.2732 -1.70809e-005 -1.26476e-005 8.98027 -0.006401 1.04667 0.0458566 -0.00553975 -6.59571 8.04366 -0.006393 3e-006 1.59028e-015 1.00179e-005 7.95139e-016 8.04451 -0.006015 -0.002032 7.97276 11.0926 -0.00886487 8.04304 -0.008319 3.07352e-009 -4.29873 6.04347e-006 2.51486e-005 10.6685 1.06812 6.95617e-006 -13.2811 -3.0366e-005 3.18249e-005 -2.46762 -5.3129 -9.04801 -158.906 -69.6354 136.681 19.0492 1e-006 -2.84217e-014 84.2373 -17.6234 -86.4817 10.3706 -1e-006 -4.9738e-014 -102.893 -3.61955e-006 2.44771e-006 22.8631 0 -3.55271e-015 45.0029 3.13915 -20.3481 6.48256 0.103653 0.504496 38.5637 -13.7567 7.205 3.66844 -1e-006 -7.81597e-014 40.107 9.22724e-006 4.92936e-006 -2.46762 -5.31294 9.04798 -158.384 73.4171 -139.949 19.0492 1.42109e-013 3e-006 134.721 -79.4697 149.833 10.3706 3e-006 3e-006 -54.3107 -2.37872e-005 -1.6223e-005 22.8631 -3e-006 -6.39488e-013 -31.4494 -10.9026 15.115 6.48257 0.103649 -0.504494 6.53948 15.4619 1.08621 3.66843 -2.62901e-013 1e-006 40.1071 7.19751e-005 -1.46045e-005 7.52378 -0.00632 -2.93397e-010 -21.5 -8.88447e-006 5.48096e-005 8.47604 -0.006574 2.69998e-005 8.50006 0.00101856 0.000877823 8.41604 -7.10543e-015 1.77636e-015 -49.2012 -0.0772363 -16.1415 3.97904e-013 5e-006 -3e-006 -23.1098 1.37701e-015 90 2.27469e-007 -0.500004 9.63333e-007 -100.381 90 -169.619 6.52749 7.61746 2.18629e-005 -99.049 -7.01671e-015 -180 2.88629 13.9448 3.88994 -23.1098 1.37701e-015 90 0.271065 1.32405 3.97618e-006 -71.7785 0.00012207 -180 4.61616 5.82873 -7.11134e-006 -120.289 2.24064e-007 -9.45046e-007 5.17783 2.98806 3.0171e-006 133.74 5.20888e-006 -2.36926e-007 5.57566 7e-006 -3e-006 1.83152 1.41025e-006 1.73725e-007 2.93163 -4.26326e-013 -3e-006 -17.65 -5.74275e-006 -2.07483e-006 3.30154 -7e-006 3e-006 -26.1943 1.51563e-005 -1.14473e-005 15.5776 -0.000396 -6.99999e-006 6.36111e-015 3.97569e-016 -0 9.40333 1.03973 -6.51764 -19.0867 17.2453 20.3009 2.77017 -0.006408 1.50001e-005 2.43503 9.27618e-006 -1.76855e-005 9.40366 1.03968 6.51768 -19.0868 -17.2453 -20.3008 2.77017 -0.006401 -4.99985e-006 2.43503 9.99519e-006 -2.12496e-007 
0 1e-006 -35.7499 -0 -90 -0 0 -28.702 44.9642 90 5.47578e-006 80.0619 0 0 0 -89.9999 7.58462e-006 -92.1736 -6.36037 -3.85828 0.244498 173.4 -1.07917 -8.26358 10.384 -0.008186 0.000988 4.75881 -1.73227 -4.3259 10.383 -0.008205 -0.000920001 -1.69906 1.61519 -1.50657 10.3841 -0.008098 0.001554 3.31649 -2.76799 -0.833581 10.3864 -0.007667 0.000626999 20.9774 -1.10375 -1.31557 9e-006 -1.5e-005 -8.75617 -104.828 -11.4331 174.693 19.7638 0 -4.44089e-015 -107.569 4.55737e-006 9.55062e-006 18.6534 3.55271e-015 -9.76996e-015 -49.3687 2.12827 -3.29324 5.09143 13.9567 -1.07001e-006 69.7621 -2.74722 -4.17924 4.288 3e-006 -1.72307e-013 19.0057 -2.27489e-005 -9.65981e-006 3.85799 -1.42109e-014 -2.66454e-015 -45 -0.00012239 5.43102e-006 -1.5e-005 1.1e-005 8.75617 -126.166 2.5825 -175.353 19.7638 -2.13163e-014 5.32907e-015 -88.7194 -9.76762e-006 1.02393e-005 18.6534 -3.55271e-015 8.88178e-015 0.500619 3.30787 2.10545 5.09143 13.9567 8.63779e-008 111.217 4.82404 1.31636 4.288 1e-006 -6.75016e-014 23.3323 0.00012501 1.14528e-005 3.85799 -6.6307e-012 -3e-006 -31.9098 -0.000120047 -7.58893e-005 8.98027 -0.006401 0.697202 0.046199 -0.00378613 -4.39352 8.04366 -0.006393 3e-006 6.36111e-015 1.00179e-005 1.74931e-014 8.04451 -0.006015 -0.002032 7.97183 7.38895 -0.00585269 8.04304 -0.008319 2.19886e-009 -4.29873 1.3142e-005 2.56001e-005 10.6685 1.06812 6.93582e-006 -13.2811 -3.15582e-005 3.15742e-005 -2.46762 -5.3129 -9.04801 -158.383 -70.4174 143.1 19.0492 1e-006 -2.84217e-014 83.2143 -30.3487 -87.109 10.3706 -1e-006 -5.68434e-014 -134.138 -8.40342e-006 2.0334e-006 22.8631 2.84217e-014 1.42109e-014 55.9088 2.73902 -21.1807 6.48256 0.103653 0.504496 34.4622 -14.2311 6.20407 3.66844 -1e-006 -8.52651e-014 40.107 4.28551e-006 4.97388e-006 -2.46762 -5.31294 9.04798 -158.426 72.6689 -138.884 19.0492 1.3145e-013 3e-006 105.659 -78.7341 117.43 10.3706 3e-006 3e-006 -47.219 -5.24173e-006 -1.4798e-005 22.8631 -3e-006 4.36984e-013 -31.226 -3.73177 19.3264 6.48257 0.103649 -0.504494 1.86962 15.3277 2.32655 3.66843 -3.33955e-013 1e-006 40.1071 5.77889e-005 -1.38079e-005 7.52378 -0.00632 -3.0772e-010 -22 -9.39658e-006 5.4791e-005 8.47604 -0.006574 2.69998e-005 8.50006 0.00101851 0.0008778 8.41604 7.10543e-015 -2.66454e-015 -49.5744 -0.346687 -14.9656 3.97904e-013 5e-006 -3e-006 -23.1098 1.37701e-015 90 2.28135e-007 -0.500004 9.64265e-007 180 90 -90 6.52749 7.61746 2.18872e-005 -99.049 -7.01671e-015 -180 2.88629 13.9448 3.88994 -23.1098 1.37701e-015 90 0.271065 1.32405 3.9804e-006 -71.7785 0.00012207 -180 4.61616 5.82873 -7.24531e-006 -120.289 1.4512e-006 -2.08219e-006 5.17783 2.98806 2.98775e-006 133.74 8.63178e-006 1.69786e-007 5.57566 7e-006 -3e-006 1.83152 1.7141e-006 2.70684e-007 2.93163 -5.96856e-013 -3e-006 -17.65 -7.76277e-006 -3.08631e-006 3.30154 -7e-006 3e-006 -26.1943 1.44903e-005 -1.19589e-005 15.5776 -0.000396 -6.99999e-006 -9.54166e-015 2.78299e-015 -3.18055e-015 9.40333 1.03973 -6.51764 -19.0867 17.2453 20.3009 2.77017 -0.006408 1.50001e-005 2.43503 9.28253e-006 -1.76896e-005 9.40366 1.03968 6.51768 -19.0868 -17.2453 -20.3008 2.77017 -0.006401 -4.99985e-006 2.43503 9.98994e-006 -2.12448e-007 
